<svg xmlns="http://www.w3.org/2000/svg" width="32" height="32" viewBox="0 0 32 32"><rect width="30" height="24" x="1" y="4" fill="#071b65" rx="4" ry="4"/><path fill="#fff" d="M5.101,4h-.101c-1.981,0-3.615,1.444-3.933,3.334L26.899,28h.101c1.981,0,3.615-1.444,3.933-3.334L5.101,4Z"/><path fill="#b92932" d="M22.25,19h-2.5l9.934,7.947c.387-.353,.704-.777,.929-1.257l-8.363-6.691Z"/><path fill="#b92932" d="M1.387,6.309l8.363,6.691h2.5L2.316,5.053c-.387,.353-.704,.777-.929,1.257Z"/><path fill="#fff" d="M5,28h.101L30.933,7.334c-.318-1.891-1.952-3.334-3.933-3.334h-.101L1.067,24.666c.318,1.891,1.952,3.334,3.933,3.334Z"/><rect width="6" height="24" x="13" y="4" fill="#fff"/><rect width="30" height="6" x="1" y="13" fill="#fff"/><rect width="4" height="24" x="14" y="4" fill="#b92932"/><rect width="4" height="30" x="14" y="1" fill="#b92932" transform="translate(32) rotate(90)"/><path fill="#b92932" d="M28.222,4.21l-9.222,7.376v1.414h.75l9.943-7.94c-.419-.384-.918-.671-1.471-.85Z"/><path fill="#b92932" d="M2.328,26.957c.414,.374,.904,.656,1.447,.832l9.225-7.38v-1.408h-.75L2.328,26.957Z"/><path d="M27,4H5c-2.209,0-4,1.791-4,4V24c0,2.209,1.791,4,4,4H27c2.209,0,4-1.791,4-4V8c0-2.209-1.791-4-4-4Zm3,20c0,1.654-1.346,3-3,3H5c-1.654,0-3-1.346-3-3V8c0-1.654,1.346-3,3-3H27c1.654,0,3,1.346,3,3V24Z" opacity=".15"/><path fill="#fff" d="M27,5H5c-1.657,0-3,1.343-3,3v1c0-1.657,1.343-3,3-3H27c1.657,0,3,1.343,3,3v-1c0-1.657-1.343-3-3-3Z" opacity=".2"/></svg>